<mxfile host="app.diagrams.net" agent="Mozilla/5.0 (Windows NT 10.0; Win64; x64) AppleWebKit/537.36 (KHTML, like Gecko) Chrome/130.0.0.0 Safari/537.36" version="24.8.4">
  <diagram name="Pagina-1" id="whGeec0us_iU8IWxTtMR">
    <mxGraphModel dx="1318" dy="551" grid="1" gridSize="10" guides="1" tooltips="1" connect="1" arrows="1" fold="1" page="1" pageScale="1" pageWidth="1100" pageHeight="850" math="0" shadow="0">
      <root>
        <mxCell id="0" />
        <mxCell id="1" parent="0" />
        <mxCell id="WmPic4fgFlVuSvD46Pqc-1" value="" style="strokeWidth=1;shadow=0;dashed=0;align=center;html=1;shape=mxgraph.mockup.containers.browserWindow;rSize=0;strokeColor=#666666;strokeColor2=#008cff;strokeColor3=#c4c4c4;mainText=,;recursiveResize=0;" vertex="1" parent="1">
          <mxGeometry x="450" y="250" width="1160" height="810" as="geometry" />
        </mxCell>
        <mxCell id="WmPic4fgFlVuSvD46Pqc-2" value="Page 1" style="strokeWidth=1;shadow=0;dashed=0;align=center;html=1;shape=mxgraph.mockup.containers.anchor;fontSize=17;fontColor=#666666;align=left;whiteSpace=wrap;" vertex="1" parent="WmPic4fgFlVuSvD46Pqc-1">
          <mxGeometry x="60" y="12" width="110" height="26" as="geometry" />
        </mxCell>
        <mxCell id="WmPic4fgFlVuSvD46Pqc-3" value="https://www.mypersonaldriver/modifyProfile.it" style="strokeWidth=1;shadow=0;dashed=0;align=center;html=1;shape=mxgraph.mockup.containers.anchor;rSize=0;fontSize=17;fontColor=#666666;align=left;" vertex="1" parent="WmPic4fgFlVuSvD46Pqc-1">
          <mxGeometry x="130" y="60" width="250" height="26" as="geometry" />
        </mxCell>
        <mxCell id="WmPic4fgFlVuSvD46Pqc-4" value="" style="shape=actor;whiteSpace=wrap;html=1;" vertex="1" parent="WmPic4fgFlVuSvD46Pqc-1">
          <mxGeometry x="1010" y="130" width="40" height="50" as="geometry" />
        </mxCell>
        <mxCell id="WmPic4fgFlVuSvD46Pqc-5" value="dopo il login&amp;nbsp;" style="text;html=1;align=center;verticalAlign=middle;resizable=0;points=[];autosize=1;strokeColor=none;fillColor=none;" vertex="1" parent="WmPic4fgFlVuSvD46Pqc-1">
          <mxGeometry x="1070" y="120" width="90" height="30" as="geometry" />
        </mxCell>
        <mxCell id="WmPic4fgFlVuSvD46Pqc-6" value="" style="line;strokeWidth=4;html=1;perimeter=backbonePerimeter;points=[];outlineConnect=0;" vertex="1" parent="WmPic4fgFlVuSvD46Pqc-1">
          <mxGeometry y="190" width="1160" height="10" as="geometry" />
        </mxCell>
        <mxCell id="WmPic4fgFlVuSvD46Pqc-7" value="" style="shape=mxgraph.signs.transportation.car_4;html=1;pointerEvents=1;fillColor=#000000;strokeColor=none;verticalLabelPosition=bottom;verticalAlign=top;align=center;" vertex="1" parent="WmPic4fgFlVuSvD46Pqc-1">
          <mxGeometry x="10" y="120" width="70" height="60" as="geometry" />
        </mxCell>
        <mxCell id="WmPic4fgFlVuSvD46Pqc-8" value="Home" style="strokeWidth=1;shadow=0;dashed=0;align=center;html=1;shape=mxgraph.mockup.buttons.button;strokeColor=#666666;fontColor=#ffffff;mainText=;buttonStyle=round;fontSize=17;fontStyle=1;fillColor=#008cff;whiteSpace=wrap;" vertex="1" parent="WmPic4fgFlVuSvD46Pqc-1">
          <mxGeometry x="150" y="127.5" width="120" height="45" as="geometry" />
        </mxCell>
        <mxCell id="WmPic4fgFlVuSvD46Pqc-9" value="" style="line;strokeWidth=4;html=1;perimeter=backbonePerimeter;points=[];outlineConnect=0;" vertex="1" parent="WmPic4fgFlVuSvD46Pqc-1">
          <mxGeometry y="660" width="1160" height="10" as="geometry" />
        </mxCell>
        <mxCell id="WmPic4fgFlVuSvD46Pqc-10" value="About us" style="strokeWidth=1;shadow=0;dashed=0;align=center;html=1;shape=mxgraph.mockup.buttons.button;strokeColor=#666666;fontColor=#ffffff;mainText=;buttonStyle=round;fontSize=17;fontStyle=1;fillColor=#008cff;whiteSpace=wrap;" vertex="1" parent="WmPic4fgFlVuSvD46Pqc-1">
          <mxGeometry x="480" y="680" width="150" height="50" as="geometry" />
        </mxCell>
        <mxCell id="WmPic4fgFlVuSvD46Pqc-11" value="Corse" style="strokeWidth=1;shadow=0;dashed=0;align=center;html=1;shape=mxgraph.mockup.buttons.button;strokeColor=#666666;fontColor=#ffffff;mainText=;buttonStyle=round;fontSize=17;fontStyle=1;fillColor=#008cff;whiteSpace=wrap;" vertex="1" parent="WmPic4fgFlVuSvD46Pqc-1">
          <mxGeometry x="400" y="125" width="150" height="50" as="geometry" />
        </mxCell>
        <mxCell id="WmPic4fgFlVuSvD46Pqc-12" value="" style="strokeWidth=1;shadow=0;dashed=0;align=center;html=1;shape=mxgraph.mockup.forms.rrect;rSize=0;strokeColor=#999999;fillColor=#ffffff;" vertex="1" parent="WmPic4fgFlVuSvD46Pqc-1">
          <mxGeometry x="280" y="270" width="510" height="370" as="geometry" />
        </mxCell>
        <mxCell id="WmPic4fgFlVuSvD46Pqc-13" value="Your profile" style="strokeWidth=1;shadow=0;dashed=0;align=center;html=1;shape=mxgraph.mockup.forms.anchor;fontSize=12;fontColor=#666666;align=left;resizeWidth=1;spacingLeft=0;" vertex="1" parent="WmPic4fgFlVuSvD46Pqc-12">
          <mxGeometry width="255" height="20" relative="1" as="geometry">
            <mxPoint x="10" y="10" as="offset" />
          </mxGeometry>
        </mxCell>
        <mxCell id="WmPic4fgFlVuSvD46Pqc-14" value="" style="shape=line;strokeColor=#ddeeff;strokeWidth=2;html=1;resizeWidth=1;" vertex="1" parent="WmPic4fgFlVuSvD46Pqc-12">
          <mxGeometry width="459" height="10" relative="1" as="geometry">
            <mxPoint x="10" y="30" as="offset" />
          </mxGeometry>
        </mxCell>
        <mxCell id="WmPic4fgFlVuSvD46Pqc-15" value="&lt;div&gt;&lt;span style=&quot;background-color: initial;&quot;&gt;Email: name@gmail.com&lt;/span&gt;&lt;/div&gt;&lt;div&gt;Password: *********&lt;/div&gt;Firstname: ...&lt;div&gt;Lastname: ...&lt;/div&gt;&lt;div&gt;Birthdate: ...&lt;/div&gt;&lt;div&gt;Phone:&amp;nbsp;&lt;span style=&quot;background-color: initial;&quot;&gt;1234567890&lt;/span&gt;&lt;/div&gt;&lt;div&gt;&lt;br&gt;&lt;/div&gt;&lt;div&gt;&lt;br&gt;&lt;/div&gt;" style="strokeWidth=1;shadow=0;dashed=0;align=center;html=1;shape=mxgraph.mockup.forms.anchor;fontSize=12;fontColor=#666666;align=left;resizeWidth=1;spacingLeft=0;" vertex="1" parent="WmPic4fgFlVuSvD46Pqc-12">
          <mxGeometry width="255" height="40" relative="1" as="geometry">
            <mxPoint x="150" y="165" as="offset" />
          </mxGeometry>
        </mxCell>
        <mxCell id="WmPic4fgFlVuSvD46Pqc-17" value="" style="strokeWidth=1;shadow=0;dashed=0;align=center;html=1;shape=mxgraph.mockup.forms.anchor;fontSize=12;fontColor=#666666;align=left;resizeWidth=1;spacingLeft=0;" vertex="1" parent="WmPic4fgFlVuSvD46Pqc-12">
          <mxGeometry width="255" height="20" relative="1" as="geometry">
            <mxPoint x="10" y="95" as="offset" />
          </mxGeometry>
        </mxCell>
        <mxCell id="WmPic4fgFlVuSvD46Pqc-18" value="" style="shape=line;strokeColor=#ddeeff;strokeWidth=2;html=1;resizeWidth=1;" vertex="1" parent="WmPic4fgFlVuSvD46Pqc-12">
          <mxGeometry y="1" width="459" height="10" relative="1" as="geometry">
            <mxPoint x="10" y="-90" as="offset" />
          </mxGeometry>
        </mxCell>
        <mxCell id="WmPic4fgFlVuSvD46Pqc-19" value="&lt;font style=&quot;font-size: 14px;&quot;&gt;Modify account&lt;/font&gt;" style="strokeWidth=1;shadow=0;dashed=0;align=center;html=1;shape=mxgraph.mockup.forms.rrect;rSize=5;strokeColor=none;fontColor=#ffffff;fillColor=#66bbff;fontSize=16;fontStyle=1;" vertex="1" parent="WmPic4fgFlVuSvD46Pqc-12">
          <mxGeometry y="1" width="180" height="40" relative="1" as="geometry">
            <mxPoint x="165" y="-61" as="offset" />
          </mxGeometry>
        </mxCell>
        <mxCell id="WmPic4fgFlVuSvD46Pqc-20" value="" style="verticalLabelPosition=bottom;shadow=0;dashed=0;align=center;html=1;verticalAlign=top;strokeWidth=1;shape=mxgraph.mockup.containers.userMale;strokeColor=#666666;strokeColor2=#008cff;" vertex="1" parent="WmPic4fgFlVuSvD46Pqc-12">
          <mxGeometry x="189.28846153846152" y="49.33333333333334" width="131.4230769230769" height="61.66666666666668" as="geometry" />
        </mxCell>
        <mxCell id="WmPic4fgFlVuSvD46Pqc-63" value="&lt;font style=&quot;font-size: 12px;&quot;&gt;Reviews&lt;/font&gt;" style="shape=rectangle;strokeColor=none;fillColor=none;linkText=;fontSize=17;fontColor=#0000ff;fontStyle=4;html=1;align=center;" vertex="1" parent="WmPic4fgFlVuSvD46Pqc-12">
          <mxGeometry x="151" y="204.88" width="48.08" height="35.24" as="geometry" />
        </mxCell>
        <mxCell id="WmPic4fgFlVuSvD46Pqc-67" value="&lt;font style=&quot;font-size: 12px;&quot;&gt;Reports&lt;/font&gt;" style="shape=rectangle;strokeColor=none;fillColor=none;linkText=;fontSize=17;fontColor=#0000ff;fontStyle=4;html=1;align=center;" vertex="1" parent="WmPic4fgFlVuSvD46Pqc-12">
          <mxGeometry x="156" y="224.88" width="38.08" height="35.24" as="geometry" />
        </mxCell>
        <mxCell id="WmPic4fgFlVuSvD46Pqc-70" value="&lt;font style=&quot;font-size: 12px;&quot;&gt;Cars&lt;/font&gt;" style="shape=rectangle;strokeColor=none;fillColor=none;linkText=;fontSize=17;fontColor=#0000ff;fontStyle=4;html=1;align=center;" vertex="1" parent="WmPic4fgFlVuSvD46Pqc-12">
          <mxGeometry x="151" y="240.12" width="28.08" height="35.24" as="geometry" />
        </mxCell>
        <mxCell id="WmPic4fgFlVuSvD46Pqc-74" value="&lt;font style=&quot;font-size: 12px;&quot;&gt;Documents&lt;/font&gt;" style="shape=rectangle;strokeColor=none;fillColor=none;linkText=;fontSize=17;fontColor=#0000ff;fontStyle=4;html=1;align=center;" vertex="1" parent="WmPic4fgFlVuSvD46Pqc-12">
          <mxGeometry x="151" y="260.12" width="65" height="30" as="geometry" />
        </mxCell>
        <mxCell id="WmPic4fgFlVuSvD46Pqc-55" value="&lt;span style=&quot;box-sizing: border-box; background: rgb(97, 175, 254); border-radius: 3px; color: rgb(255, 255, 255); font-family: sans-serif; font-size: 14px; font-weight: 700; min-width: 80px; padding: 6px 0px; text-shadow: rgba(0, 0, 0, 0.1) 0px 1px 0px; text-wrap-mode: wrap;&quot; class=&quot;opblock-summary-method&quot;&gt;GET&lt;/span&gt;&lt;a style=&quot;font-family: monospace; font-size: 16px; font-weight: 600; background-color: transparent; color: inherit; text-align: start; text-wrap-mode: wrap; box-sizing: border-box; cursor: pointer; text-decoration: inherit; display: inline !important;&quot; class=&quot;nostyle&quot;&gt;&lt;span style=&quot;box-sizing: border-box;&quot;&gt;/users&lt;wbr style=&quot;box-sizing: border-box;&quot;&gt;/{idUser}&lt;/span&gt;&lt;/a&gt;" style="text;html=1;align=center;verticalAlign=middle;resizable=0;points=[];autosize=1;strokeColor=none;fillColor=none;" vertex="1" parent="WmPic4fgFlVuSvD46Pqc-1">
          <mxGeometry x="780" y="500" width="180" height="30" as="geometry" />
        </mxCell>
        <mxCell id="WmPic4fgFlVuSvD46Pqc-56" value="" style="endArrow=classic;html=1;rounded=0;exitX=0.988;exitY=0.336;exitDx=0;exitDy=0;entryX=0.459;entryY=1.054;entryDx=0;entryDy=0;entryPerimeter=0;exitPerimeter=0;" edge="1" target="WmPic4fgFlVuSvD46Pqc-55" parent="WmPic4fgFlVuSvD46Pqc-1" source="WmPic4fgFlVuSvD46Pqc-19">
          <mxGeometry width="50" height="50" relative="1" as="geometry">
            <mxPoint x="700" y="572" as="sourcePoint" />
            <mxPoint x="610" y="662" as="targetPoint" />
          </mxGeometry>
        </mxCell>
        <mxCell id="WmPic4fgFlVuSvD46Pqc-57" value="&lt;span style=&quot;box-sizing: border-box; background: rgb(97, 175, 254); border-radius: 3px; color: rgb(255, 255, 255); font-family: sans-serif; font-size: 14px; font-weight: 700; min-width: 80px; padding: 6px 0px; text-shadow: rgba(0, 0, 0, 0.1) 0px 1px 0px; text-wrap-mode: wrap;&quot; class=&quot;opblock-summary-method&quot;&gt;GET&lt;/span&gt;&lt;a style=&quot;font-family: monospace; font-size: 16px; font-weight: 600; background-color: transparent; color: inherit; text-align: start; text-wrap-mode: wrap; box-sizing: border-box; cursor: pointer; text-decoration: inherit; display: inline !important;&quot; class=&quot;nostyle&quot;&gt;&lt;span style=&quot;box-sizing: border-box;&quot;&gt;/accounts&lt;/span&gt;&lt;/a&gt;" style="text;html=1;align=center;verticalAlign=middle;resizable=0;points=[];autosize=1;strokeColor=none;fillColor=none;" vertex="1" parent="WmPic4fgFlVuSvD46Pqc-1">
          <mxGeometry x="830" y="570" width="130" height="30" as="geometry" />
        </mxCell>
        <mxCell id="WmPic4fgFlVuSvD46Pqc-58" value="" style="endArrow=classic;html=1;rounded=0;exitX=0.996;exitY=0.264;exitDx=0;exitDy=0;exitPerimeter=0;" edge="1" target="WmPic4fgFlVuSvD46Pqc-57" parent="WmPic4fgFlVuSvD46Pqc-1" source="WmPic4fgFlVuSvD46Pqc-19">
          <mxGeometry width="50" height="50" relative="1" as="geometry">
            <mxPoint x="700" y="572" as="sourcePoint" />
            <mxPoint x="790" y="662" as="targetPoint" />
          </mxGeometry>
        </mxCell>
        <mxCell id="WmPic4fgFlVuSvD46Pqc-61" value="&lt;font face=&quot;sans-serif&quot; color=&quot;#ffffff&quot;&gt;&lt;span style=&quot;font-size: 14px; background-color: rgb(97, 175, 254);&quot;&gt;&lt;b&gt;rimanda alla pagina delle recensioni&lt;/b&gt;&lt;/span&gt;&lt;/font&gt;" style="text;html=1;align=center;verticalAlign=middle;whiteSpace=wrap;rounded=0;" vertex="1" parent="WmPic4fgFlVuSvD46Pqc-1">
          <mxGeometry x="170" y="380" width="60" height="30" as="geometry" />
        </mxCell>
        <mxCell id="WmPic4fgFlVuSvD46Pqc-62" value="" style="endArrow=classic;html=1;rounded=0;exitX=0;exitY=0.5;exitDx=0;exitDy=0;entryX=1;entryY=0;entryDx=0;entryDy=0;" edge="1" parent="WmPic4fgFlVuSvD46Pqc-1" source="WmPic4fgFlVuSvD46Pqc-63" target="WmPic4fgFlVuSvD46Pqc-61">
          <mxGeometry width="50" height="50" relative="1" as="geometry">
            <mxPoint x="540" y="530" as="sourcePoint" />
            <mxPoint x="590" y="480" as="targetPoint" />
          </mxGeometry>
        </mxCell>
        <mxCell id="WmPic4fgFlVuSvD46Pqc-68" value="&lt;font face=&quot;sans-serif&quot; color=&quot;#ffffff&quot;&gt;&lt;span style=&quot;font-size: 14px; background-color: rgb(97, 175, 254);&quot;&gt;&lt;b&gt;rimanda alla pagina delle segnalazioni&lt;/b&gt;&lt;/span&gt;&lt;/font&gt;" style="text;html=1;align=center;verticalAlign=middle;whiteSpace=wrap;rounded=0;" vertex="1" parent="WmPic4fgFlVuSvD46Pqc-1">
          <mxGeometry x="60" y="420" width="60" height="30" as="geometry" />
        </mxCell>
        <mxCell id="WmPic4fgFlVuSvD46Pqc-69" value="" style="endArrow=classic;html=1;rounded=0;exitX=0;exitY=0.5;exitDx=0;exitDy=0;entryX=1;entryY=0.25;entryDx=0;entryDy=0;" edge="1" parent="WmPic4fgFlVuSvD46Pqc-1" source="WmPic4fgFlVuSvD46Pqc-67" target="WmPic4fgFlVuSvD46Pqc-68">
          <mxGeometry width="50" height="50" relative="1" as="geometry">
            <mxPoint x="540" y="530" as="sourcePoint" />
            <mxPoint x="590" y="480" as="targetPoint" />
          </mxGeometry>
        </mxCell>
        <mxCell id="WmPic4fgFlVuSvD46Pqc-71" value="" style="endArrow=classic;html=1;rounded=0;exitX=0;exitY=0.5;exitDx=0;exitDy=0;" edge="1" parent="WmPic4fgFlVuSvD46Pqc-1" source="WmPic4fgFlVuSvD46Pqc-70" target="WmPic4fgFlVuSvD46Pqc-73">
          <mxGeometry width="50" height="50" relative="1" as="geometry">
            <mxPoint x="330" y="508" as="sourcePoint" />
            <mxPoint x="130" y="438" as="targetPoint" />
          </mxGeometry>
        </mxCell>
        <mxCell id="WmPic4fgFlVuSvD46Pqc-73" value="&lt;font face=&quot;sans-serif&quot; color=&quot;#ffffff&quot;&gt;&lt;span style=&quot;font-size: 14px; background-color: rgb(97, 175, 254);&quot;&gt;&lt;b&gt;rimanda alla pagina dei veicolo&lt;/b&gt;&lt;/span&gt;&lt;/font&gt;" style="text;html=1;align=center;verticalAlign=middle;whiteSpace=wrap;rounded=0;" vertex="1" parent="WmPic4fgFlVuSvD46Pqc-1">
          <mxGeometry x="70" y="510" width="90" height="30" as="geometry" />
        </mxCell>
        <mxCell id="WmPic4fgFlVuSvD46Pqc-36" value="Title" style="swimlane;strokeColor=#999999;swimlaneFillColor=#FFFFFF;fillColor=#ffffff;fontColor=#008CFF;fontStyle=0;childLayout=stackLayout;horizontal=1;startSize=30;horizontalStack=0;resizeParent=1;resizeParentMax=0;resizeLast=0;collapsible=0;marginBottom=0;whiteSpace=wrap;html=1;fontSize=17;" vertex="1" parent="WmPic4fgFlVuSvD46Pqc-1">
          <mxGeometry x="400" y="175" width="150" height="100" as="geometry" />
        </mxCell>
        <mxCell id="WmPic4fgFlVuSvD46Pqc-37" value="Prenota corsa" style="text;spacing=0;strokeColor=none;align=left;verticalAlign=middle;spacingLeft=7;spacingRight=10;overflow=hidden;points=[[0,0.5],[1,0.5]];portConstraint=eastwest;rotatable=0;whiteSpace=wrap;html=1;fillColor=none;fontColor=#666666;fontSize=17;" vertex="1" parent="WmPic4fgFlVuSvD46Pqc-36">
          <mxGeometry y="30" width="150" height="20" as="geometry" />
        </mxCell>
        <mxCell id="WmPic4fgFlVuSvD46Pqc-38" value="Le tue corse" style="text;spacing=0;strokeColor=none;align=left;verticalAlign=middle;spacingLeft=7;spacingRight=10;overflow=hidden;points=[[0,0.5],[1,0.5]];portConstraint=eastwest;rotatable=0;whiteSpace=wrap;html=1;rSize=5;fillColor=none;fontColor=#666666;fontSize=17;" vertex="1" parent="WmPic4fgFlVuSvD46Pqc-36">
          <mxGeometry y="50" width="150" height="20" as="geometry" />
        </mxCell>
        <mxCell id="WmPic4fgFlVuSvD46Pqc-39" value="" style="text;spacing=0;strokeColor=none;align=left;verticalAlign=middle;spacingLeft=7;spacingRight=10;overflow=hidden;points=[[0,0.5],[1,0.5]];portConstraint=eastwest;rotatable=0;whiteSpace=wrap;html=1;fillColor=none;fontColor=#666666;fontSize=17;" vertex="1" parent="WmPic4fgFlVuSvD46Pqc-36">
          <mxGeometry y="70" width="150" height="30" as="geometry" />
        </mxCell>
        <mxCell id="WmPic4fgFlVuSvD46Pqc-75" value="&lt;font face=&quot;sans-serif&quot; color=&quot;#ffffff&quot;&gt;&lt;span style=&quot;font-size: 14px; background-color: rgb(97, 175, 254);&quot;&gt;&lt;b&gt;rimanda alla pagina dei documenti&lt;/b&gt;&lt;/span&gt;&lt;/font&gt;" style="text;html=1;align=center;verticalAlign=middle;whiteSpace=wrap;rounded=0;" vertex="1" parent="WmPic4fgFlVuSvD46Pqc-1">
          <mxGeometry x="100" y="590" width="90" height="30" as="geometry" />
        </mxCell>
        <mxCell id="WmPic4fgFlVuSvD46Pqc-76" value="" style="endArrow=classic;html=1;rounded=0;exitX=0;exitY=0.5;exitDx=0;exitDy=0;entryX=1;entryY=0;entryDx=0;entryDy=0;" edge="1" parent="WmPic4fgFlVuSvD46Pqc-1" source="WmPic4fgFlVuSvD46Pqc-74" target="WmPic4fgFlVuSvD46Pqc-75">
          <mxGeometry width="50" height="50" relative="1" as="geometry">
            <mxPoint x="510" y="630" as="sourcePoint" />
            <mxPoint x="560" y="580" as="targetPoint" />
          </mxGeometry>
        </mxCell>
        <mxCell id="WmPic4fgFlVuSvD46Pqc-79" value="&lt;span style=&quot;box-sizing: border-box; background: rgb(97, 175, 254); border-radius: 3px; color: rgb(255, 255, 255); font-family: sans-serif; font-size: 14px; font-weight: 700; min-width: 80px; padding: 6px 0px; text-shadow: rgba(0, 0, 0, 0.1) 0px 1px 0px;&quot; class=&quot;opblock-summary-method&quot;&gt;GET&lt;/span&gt;&lt;a style=&quot;font-family: monospace; font-size: 16px; font-weight: 600; background-color: transparent; color: inherit; text-align: start; box-sizing: border-box; cursor: pointer; text-decoration: inherit; display: inline !important;&quot; class=&quot;nostyle&quot;&gt;&lt;span style=&quot;box-sizing: border-box;&quot;&gt;/users&lt;wbr style=&quot;box-sizing: border-box;&quot;&gt;/{idUser}&lt;wbr style=&quot;box-sizing: border-box;&quot;&gt;/rides&lt;wbr style=&quot;box-sizing: border-box;&quot;&gt;/reviews&lt;/span&gt;&lt;/a&gt;" style="text;html=1;align=center;verticalAlign=middle;whiteSpace=wrap;rounded=0;" vertex="1" parent="WmPic4fgFlVuSvD46Pqc-1">
          <mxGeometry x="160" y="260" width="60" height="30" as="geometry" />
        </mxCell>
        <mxCell id="WmPic4fgFlVuSvD46Pqc-81" value="" style="endArrow=classic;html=1;rounded=0;" edge="1" parent="WmPic4fgFlVuSvD46Pqc-1" source="WmPic4fgFlVuSvD46Pqc-61" target="WmPic4fgFlVuSvD46Pqc-79">
          <mxGeometry width="50" height="50" relative="1" as="geometry">
            <mxPoint x="480" y="450" as="sourcePoint" />
            <mxPoint x="530" y="400" as="targetPoint" />
          </mxGeometry>
        </mxCell>
        <mxCell id="WmPic4fgFlVuSvD46Pqc-77" value="&lt;span style=&quot;box-sizing: border-box; background: rgb(97, 175, 254); border-radius: 3px; color: rgb(255, 255, 255); font-family: sans-serif; font-size: 14px; font-weight: 700; min-width: 80px; padding: 6px 0px; text-shadow: rgba(0, 0, 0, 0.1) 0px 1px 0px;&quot; class=&quot;opblock-summary-method&quot;&gt;GET&lt;/span&gt;&lt;a style=&quot;font-family: monospace; font-size: 16px; font-weight: 600; background-color: transparent; color: inherit; text-align: start; box-sizing: border-box; cursor: pointer; text-decoration: inherit; display: inline !important;&quot; class=&quot;nostyle&quot;&gt;&lt;span style=&quot;box-sizing: border-box;&quot;&gt;/users&lt;wbr style=&quot;box-sizing: border-box;&quot;&gt;/{idUser}&lt;wbr style=&quot;box-sizing: border-box;&quot;&gt;/rides&lt;wbr style=&quot;box-sizing: border-box;&quot;&gt;/reports&lt;/span&gt;&lt;/a&gt;" style="text;html=1;align=center;verticalAlign=middle;whiteSpace=wrap;rounded=0;" vertex="1" parent="WmPic4fgFlVuSvD46Pqc-1">
          <mxGeometry x="15" y="310" width="60" height="30" as="geometry" />
        </mxCell>
        <mxCell id="WmPic4fgFlVuSvD46Pqc-82" value="" style="endArrow=classic;html=1;rounded=0;exitX=0;exitY=0.5;exitDx=0;exitDy=0;" edge="1" parent="WmPic4fgFlVuSvD46Pqc-1" source="WmPic4fgFlVuSvD46Pqc-68" target="WmPic4fgFlVuSvD46Pqc-77">
          <mxGeometry width="50" height="50" relative="1" as="geometry">
            <mxPoint x="480" y="450" as="sourcePoint" />
            <mxPoint x="530" y="400" as="targetPoint" />
          </mxGeometry>
        </mxCell>
        <mxCell id="WmPic4fgFlVuSvD46Pqc-33" value="" style="verticalLabelPosition=bottom;shadow=0;dashed=0;align=center;html=1;verticalAlign=top;strokeWidth=1;shape=mxgraph.mockup.containers.userMale;strokeColor=#666666;strokeColor2=#008cff;" vertex="1" parent="1">
          <mxGeometry x="1666" y="355" width="100" height="100" as="geometry" />
        </mxCell>
        <mxCell id="WmPic4fgFlVuSvD46Pqc-34" value="" style="shape=waypoint;sketch=0;size=6;pointerEvents=1;points=[];fillColor=default;resizable=0;rotatable=0;perimeter=centerPerimeter;snapToPoint=1;" vertex="1" parent="1">
          <mxGeometry x="1656" y="395" width="20" height="20" as="geometry" />
        </mxCell>
        <mxCell id="WmPic4fgFlVuSvD46Pqc-35" value="" style="edgeStyle=orthogonalEdgeStyle;rounded=0;orthogonalLoop=1;jettySize=auto;html=1;" edge="1" parent="1" source="WmPic4fgFlVuSvD46Pqc-4" target="WmPic4fgFlVuSvD46Pqc-34">
          <mxGeometry relative="1" as="geometry" />
        </mxCell>
        <mxCell id="WmPic4fgFlVuSvD46Pqc-40" value="Title" style="swimlane;strokeColor=#999999;swimlaneFillColor=#FFFFFF;fillColor=#ffffff;fontColor=#008CFF;fontStyle=0;childLayout=stackLayout;horizontal=1;startSize=30;horizontalStack=0;resizeParent=1;resizeParentMax=0;resizeLast=0;collapsible=0;marginBottom=0;whiteSpace=wrap;html=1;fontSize=17;" vertex="1" parent="1">
          <mxGeometry x="1646" y="470" width="150" height="210" as="geometry" />
        </mxCell>
        <mxCell id="WmPic4fgFlVuSvD46Pqc-41" value="dropdown" style="strokeWidth=1;shadow=0;dashed=0;align=center;html=1;shape=mxgraph.mockup.forms.comboBox;strokeColor=#999999;fillColor=#ddeeff;align=left;fillColor2=#aaddff;mainText=;fontColor=#666666;fontSize=17;spacingLeft=3;" vertex="1" parent="WmPic4fgFlVuSvD46Pqc-40">
          <mxGeometry y="30" width="150" height="30" as="geometry" />
        </mxCell>
        <mxCell id="WmPic4fgFlVuSvD46Pqc-42" value="Visualizza profilo" style="text;spacing=0;strokeColor=none;align=left;verticalAlign=middle;spacingLeft=7;spacingRight=10;overflow=hidden;points=[[0,0.5],[1,0.5]];portConstraint=eastwest;rotatable=0;whiteSpace=wrap;html=1;fillColor=none;fontColor=#666666;fontSize=17;" vertex="1" parent="WmPic4fgFlVuSvD46Pqc-40">
          <mxGeometry y="60" width="150" height="20" as="geometry" />
        </mxCell>
        <mxCell id="WmPic4fgFlVuSvD46Pqc-43" value="" style="text;spacing=0;strokeColor=none;align=left;verticalAlign=middle;spacingLeft=7;spacingRight=10;overflow=hidden;points=[[0,0.5],[1,0.5]];portConstraint=eastwest;rotatable=0;whiteSpace=wrap;html=1;rSize=5;fillColor=#DDEEFF;fontColor=#666666;fontSize=17;" vertex="1" parent="WmPic4fgFlVuSvD46Pqc-40">
          <mxGeometry y="80" width="150" height="20" as="geometry" />
        </mxCell>
        <mxCell id="WmPic4fgFlVuSvD46Pqc-44" value="LOGOUT" style="text;spacing=0;strokeColor=none;align=left;verticalAlign=middle;spacingLeft=7;spacingRight=10;overflow=hidden;points=[[0,0.5],[1,0.5]];portConstraint=eastwest;rotatable=0;whiteSpace=wrap;html=1;fillColor=none;fontColor=#666666;fontSize=17;" vertex="1" parent="WmPic4fgFlVuSvD46Pqc-40">
          <mxGeometry y="100" width="150" height="20" as="geometry" />
        </mxCell>
        <mxCell id="WmPic4fgFlVuSvD46Pqc-45" value="" style="text;spacing=0;strokeColor=none;align=left;verticalAlign=middle;spacingLeft=7;spacingRight=10;overflow=hidden;points=[[0,0.5],[1,0.5]];portConstraint=eastwest;rotatable=0;whiteSpace=wrap;html=1;fillColor=none;fontColor=#666666;fontSize=17;" vertex="1" parent="WmPic4fgFlVuSvD46Pqc-40">
          <mxGeometry y="120" width="150" height="90" as="geometry" />
        </mxCell>
        <mxCell id="WmPic4fgFlVuSvD46Pqc-46" value="&lt;span style=&quot;box-sizing: border-box; background: rgb(97, 175, 254); border-radius: 3px; color: rgb(255, 255, 255); font-family: sans-serif; font-size: 14px; font-weight: 700; min-width: 80px; padding: 6px 0px; text-shadow: rgba(0, 0, 0, 0.1) 0px 1px 0px; text-wrap-mode: wrap;&quot; class=&quot;opblock-summary-method&quot;&gt;GET&lt;/span&gt;&lt;a style=&quot;font-family: monospace; font-size: 16px; font-weight: 600; background-color: transparent; color: inherit; text-align: start; text-wrap-mode: wrap; box-sizing: border-box; cursor: pointer; text-decoration: inherit; display: inline !important;&quot; class=&quot;nostyle&quot;&gt;&lt;span style=&quot;box-sizing: border-box;&quot;&gt;/users&lt;wbr style=&quot;box-sizing: border-box;&quot;&gt;/{idUser}&lt;/span&gt;&lt;/a&gt;" style="text;html=1;align=center;verticalAlign=middle;resizable=0;points=[];autosize=1;strokeColor=none;fillColor=none;" vertex="1" parent="1">
          <mxGeometry x="1816" y="498" width="180" height="30" as="geometry" />
        </mxCell>
        <mxCell id="WmPic4fgFlVuSvD46Pqc-47" value="" style="endArrow=classic;html=1;rounded=0;exitX=1;exitY=0.5;exitDx=0;exitDy=0;entryX=0.459;entryY=1.054;entryDx=0;entryDy=0;entryPerimeter=0;" edge="1" parent="1" source="WmPic4fgFlVuSvD46Pqc-42" target="WmPic4fgFlVuSvD46Pqc-46">
          <mxGeometry width="50" height="50" relative="1" as="geometry">
            <mxPoint x="1656" y="680" as="sourcePoint" />
            <mxPoint x="1706" y="630" as="targetPoint" />
          </mxGeometry>
        </mxCell>
        <mxCell id="WmPic4fgFlVuSvD46Pqc-48" value="&lt;span style=&quot;box-sizing: border-box; background: rgb(97, 175, 254); border-radius: 3px; color: rgb(255, 255, 255); font-family: sans-serif; font-size: 14px; font-weight: 700; min-width: 80px; padding: 6px 0px; text-shadow: rgba(0, 0, 0, 0.1) 0px 1px 0px; text-wrap-mode: wrap;&quot; class=&quot;opblock-summary-method&quot;&gt;GET&lt;/span&gt;&lt;a style=&quot;font-family: monospace; font-size: 16px; font-weight: 600; background-color: transparent; color: inherit; text-align: start; text-wrap-mode: wrap; box-sizing: border-box; cursor: pointer; text-decoration: inherit; display: inline !important;&quot; class=&quot;nostyle&quot;&gt;&lt;span style=&quot;box-sizing: border-box;&quot;&gt;/accounts&lt;/span&gt;&lt;/a&gt;" style="text;html=1;align=center;verticalAlign=middle;resizable=0;points=[];autosize=1;strokeColor=none;fillColor=none;" vertex="1" parent="1">
          <mxGeometry x="1841" y="578" width="130" height="30" as="geometry" />
        </mxCell>
        <mxCell id="WmPic4fgFlVuSvD46Pqc-49" value="" style="endArrow=classic;html=1;rounded=0;exitX=1;exitY=0.5;exitDx=0;exitDy=0;" edge="1" parent="1" source="WmPic4fgFlVuSvD46Pqc-42" target="WmPic4fgFlVuSvD46Pqc-48">
          <mxGeometry width="50" height="50" relative="1" as="geometry">
            <mxPoint x="1836" y="680" as="sourcePoint" />
            <mxPoint x="1886" y="630" as="targetPoint" />
          </mxGeometry>
        </mxCell>
        <mxCell id="WmPic4fgFlVuSvD46Pqc-78" value="&lt;span style=&quot;box-sizing: border-box; background: rgb(97, 175, 254); border-radius: 3px; color: rgb(255, 255, 255); font-family: sans-serif; font-size: 14px; font-weight: 700; min-width: 80px; padding: 6px 0px; text-shadow: rgba(0, 0, 0, 0.1) 0px 1px 0px;&quot; class=&quot;opblock-summary-method&quot;&gt;GET&lt;/span&gt;&lt;a style=&quot;font-family: monospace; font-size: 16px; font-weight: 600; background-color: transparent; color: inherit; text-align: start; box-sizing: border-box; cursor: pointer; text-decoration: inherit; display: inline !important;&quot; class=&quot;nostyle&quot;&gt;&lt;span style=&quot;box-sizing: border-box;&quot;&gt;/users&lt;wbr style=&quot;box-sizing: border-box;&quot;&gt;/{idUser}&lt;wbr style=&quot;box-sizing: border-box;&quot;&gt;/Cars&lt;/span&gt;&lt;/a&gt;" style="text;html=1;align=center;verticalAlign=middle;whiteSpace=wrap;rounded=0;" vertex="1" parent="1">
          <mxGeometry x="410" y="740" width="60" height="30" as="geometry" />
        </mxCell>
        <mxCell id="WmPic4fgFlVuSvD46Pqc-80" value="&lt;span style=&quot;box-sizing: border-box; background: rgb(97, 175, 254); border-radius: 3px; color: rgb(255, 255, 255); font-family: sans-serif; font-size: 14px; font-weight: 700; min-width: 80px; padding: 6px 0px; text-shadow: rgba(0, 0, 0, 0.1) 0px 1px 0px;&quot; class=&quot;opblock-summary-method&quot;&gt;GET&lt;/span&gt;&lt;a style=&quot;font-family: monospace; font-size: 16px; font-weight: 600; background-color: transparent; color: inherit; text-align: start; box-sizing: border-box; cursor: pointer; text-decoration: inherit; display: inline !important;&quot; class=&quot;nostyle&quot;&gt;&lt;span style=&quot;box-sizing: border-box;&quot;&gt;/users&lt;wbr style=&quot;box-sizing: border-box;&quot;&gt;/{idUser}&lt;wbr style=&quot;box-sizing: border-box;&quot;&gt;/documents&lt;/span&gt;&lt;/a&gt;" style="text;html=1;align=center;verticalAlign=middle;whiteSpace=wrap;rounded=0;" vertex="1" parent="1">
          <mxGeometry x="410" y="830" width="60" height="30" as="geometry" />
        </mxCell>
        <mxCell id="WmPic4fgFlVuSvD46Pqc-83" value="" style="endArrow=classic;html=1;rounded=0;exitX=0;exitY=0.5;exitDx=0;exitDy=0;entryX=1;entryY=1;entryDx=0;entryDy=0;" edge="1" parent="1" source="WmPic4fgFlVuSvD46Pqc-73" target="WmPic4fgFlVuSvD46Pqc-78">
          <mxGeometry width="50" height="50" relative="1" as="geometry">
            <mxPoint x="930" y="700" as="sourcePoint" />
            <mxPoint x="980" y="650" as="targetPoint" />
          </mxGeometry>
        </mxCell>
        <mxCell id="WmPic4fgFlVuSvD46Pqc-84" value="" style="endArrow=classic;html=1;rounded=0;exitX=0;exitY=0.5;exitDx=0;exitDy=0;entryX=1;entryY=0.5;entryDx=0;entryDy=0;" edge="1" parent="1" source="WmPic4fgFlVuSvD46Pqc-75" target="WmPic4fgFlVuSvD46Pqc-80">
          <mxGeometry width="50" height="50" relative="1" as="geometry">
            <mxPoint x="930" y="700" as="sourcePoint" />
            <mxPoint x="980" y="650" as="targetPoint" />
          </mxGeometry>
        </mxCell>
      </root>
    </mxGraphModel>
  </diagram>
</mxfile>
